<svg width="25" height="17" viewBox="0 0 25 17" fill="none" xmlns="http://www.w3.org/2000/svg">
<path d="M24.0505 7.84234C24.0505 7.58015 24.2631 7.36761 24.5253 7.36761C24.7875 7.36761 25 7.58015 25 7.84234V9.15766C25 9.41985 24.7875 9.63239 24.5253 9.63239C24.2631 9.63239 24.0505 9.41985 24.0505 9.15766V7.84234ZM22.1796 9.82076C22.1796 10.0829 22.3921 10.2955 22.6543 10.2955C22.9165 10.2955 23.129 10.0829 23.129 9.82076V7.17924C23.129 6.91705 22.9165 6.70451 22.6543 6.70451C22.3921 6.70451 22.1796 6.91705 22.1796 7.17924V9.82076ZM20.34 11.6782C20.34 11.9404 20.5525 12.1529 20.8147 12.1529C21.0769 12.1529 21.2895 11.9404 21.2895 11.6782V5.32183C21.2895 5.05964 21.0769 4.8471 20.8147 4.8471C20.5525 4.8471 20.34 5.05964 20.34 5.32183V11.6782ZM18.5912 13.5837C18.5912 13.5851 18.5923 13.5862 18.5937 13.5862H19.066C19.3282 13.5862 19.5407 13.3736 19.5407 13.1114V3.95542C19.5407 3.69323 19.3282 3.48069 19.066 3.48069C18.8038 3.48069 18.5912 3.69323 18.5912 3.95542V13.5837ZM16.7191 10.6436C16.7191 10.9058 16.9316 11.1183 17.1938 11.1183C17.456 11.1183 17.6685 10.9058 17.6685 10.6436V6.3564C17.6685 6.09421 17.456 5.88167 17.1938 5.88167C16.9316 5.88167 16.7191 6.09421 16.7191 6.3564V10.6436ZM14.8172 15.0808C15.3416 15.0808 15.7667 14.6557 15.7667 14.1313V2.17135C15.7667 1.90834 15.5535 1.69512 15.2905 1.69512C15.0275 1.69512 14.8142 1.90834 14.8142 2.17135V15.0778C14.8142 15.0794 14.8156 15.0808 14.8172 15.0808ZM12.9457 16.5253C12.9457 16.7875 13.1582 17 13.4204 17C13.6826 17 13.8951 16.7875 13.8951 16.5253V0.474727C13.8951 0.212542 13.6826 0 13.4204 0C13.1582 0 12.9457 0.212543 12.9457 0.474728V16.5253ZM11.1061 13.9008C11.1061 14.1629 11.3186 14.3755 11.5808 14.3755C11.843 14.3755 12.0555 14.1629 12.0555 13.9008V3.09918C12.0555 2.837 11.843 2.62445 11.5808 2.62445C11.3186 2.62445 11.1061 2.837 11.1061 3.09918V13.9008ZM9.20304 10.5637C9.20304 10.8259 9.41559 11.0384 9.67777 11.0384C9.93996 11.0384 10.1525 10.8259 10.1525 10.5637V6.56003C10.1525 6.29784 9.93996 6.0853 9.67777 6.0853C9.41559 6.0853 9.20304 6.29784 9.20304 6.56003V10.5637ZM7.36353 9.86215C7.36353 9.85968 7.36554 9.85767 7.36801 9.85767H7.83826C8.10045 9.85767 8.31299 9.64513 8.31299 9.38295V7.61269C8.31299 7.3505 8.10045 7.13796 7.83826 7.13796C7.57608 7.13796 7.36353 7.3505 7.36353 7.61269V9.86215ZM5.52397 11.3145C5.52397 11.3135 5.52478 11.3127 5.52578 11.3127H5.9987C6.26088 11.3127 6.47342 11.1002 6.47342 10.838V6.16009C6.47342 5.8979 6.26088 5.68536 5.9987 5.68536C5.73651 5.68536 5.52397 5.8979 5.52397 6.16009V11.3145ZM3.71413 14.0388C3.7141 14.0377 3.71497 14.0368 3.71606 14.0368H4.19528C4.45389 14.0368 4.66353 13.8272 4.66353 13.5685V3.11588C4.66353 2.85371 4.451 2.64118 4.18883 2.64118C3.92666 2.64118 3.71413 2.85371 3.71413 3.11588V14.0388ZM1.87457 12.2978C1.87457 12.2967 1.87543 12.2959 1.87649 12.2959H2.34929C2.61148 12.2959 2.82402 12.0833 2.82402 11.8211V5.081C2.82402 4.81882 2.61148 4.60627 2.34929 4.60627C2.08711 4.60627 1.87457 4.81882 1.87457 5.081V12.2978ZM0 9.82076C0 10.0829 0.212543 10.2955 0.474728 10.2955C0.736914 10.2955 0.949457 10.0829 0.949457 9.82076V7.17924C0.949457 6.91705 0.736914 6.70451 0.474728 6.70451C0.212543 6.70451 0 6.91705 0 7.17924V9.82076Z" fill="#3FB2C4"/>
</svg>
