<svg width="32" height="9" viewBox="0 0 32 9" fill="none" xmlns="http://www.w3.org/2000/svg">
<path d="M1.5 0C0.671573 0 0 0.671573 0 1.5C0 2.32843 0.671573 3 1.5 3H30.5C31.3284 3 32 2.32843 32 1.5C32 0.671573 31.3284 0 30.5 0H1.5ZM1.5 6C0.671573 6 0 6.67157 0 7.5C0 8.32843 0.671573 9 1.5 9H6.5C7.32843 9 8 8.32843 8 7.5C8 6.67157 7.32843 6 6.5 6H1.5ZM12.7 6C11.8716 6 11.2 6.67157 11.2 7.5C11.2 8.32843 11.8716 9 12.7 9H19.3C20.1284 9 20.8 8.32843 20.8 7.5C20.8 6.67157 20.1284 6 19.3 6H12.7ZM25.5 6C24.6716 6 24 6.67157 24 7.5C24 8.32843 24.6716 9 25.5 9H30.5C31.3284 9 32 8.32843 32 7.5C32 6.67157 31.3284 6 30.5 6H25.5Z" fill="#FFBD00"/>
</svg>
