<?xml version="1.0" encoding="UTF-8"?>
<svg xmlns="http://www.w3.org/2000/svg" xmlns:xlink="http://www.w3.org/1999/xlink" width="20px" height="20px" viewBox="0 0 20 20" version="1.1">
<g id="surface1">
<path style=" stroke:none;fill-rule:nonzero;fill:rgb(51.764706%,72.156863%,98.431373%);fill-opacity:1;" d="M 11.09375 0 C 11.4375 -0.078125 11.4375 -0.078125 11.875 0 C 12.832031 0.996094 13.199219 2.597656 13.417969 3.914062 C 13.476562 4.25 13.476562 4.25 13.59375 4.53125 C 14.03125 4.808594 14.03125 4.808594 14.53125 5 C 14.96875 5.414062 15.277344 5.828125 15.46875 6.40625 C 15.859375 6.527344 16.230469 6.617188 16.632812 6.699219 C 17.882812 6.980469 18.929688 7.410156 20 8.125 C 20.03125 8.535156 20.03125 8.535156 20 8.90625 C 19.359375 8.8125 18.878906 8.597656 18.3125 8.292969 C 17.351562 7.800781 16.558594 7.5 15.46875 7.5 C 15.417969 7.65625 15.367188 7.808594 15.3125 7.96875 C 15.421875 8.003906 15.53125 8.039062 15.644531 8.078125 C 16.929688 8.664062 17.6875 9.796875 18.25 11.054688 C 18.792969 12.53125 18.722656 14.011719 18.125 15.46875 C 17.28125 16.957031 16.253906 17.917969 14.609375 18.417969 C 12.992188 18.796875 11.546875 18.613281 10.109375 17.753906 C 9.253906 17.179688 8.597656 16.433594 7.96875 15.625 C 7.96875 15.523438 7.96875 15.417969 7.96875 15.3125 C 7.8125 15.363281 7.660156 15.414062 7.5 15.46875 C 7.5625 16.746094 7.890625 18.054688 8.699219 19.078125 C 8.90625 19.375 8.90625 19.375 8.90625 20 C 8.5625 20.078125 8.5625 20.078125 8.125 20 C 7.167969 19.003906 6.800781 17.402344 6.582031 16.085938 C 6.523438 15.75 6.523438 15.75 6.40625 15.46875 C 5.96875 15.191406 5.96875 15.191406 5.46875 15 C 5.03125 14.585938 4.722656 14.171875 4.53125 13.59375 C 4.140625 13.472656 3.769531 13.382812 3.367188 13.300781 C 2.117188 13.019531 1.070312 12.589844 0 11.875 C -0.03125 11.464844 -0.03125 11.464844 0 11.09375 C 0.640625 11.1875 1.121094 11.402344 1.6875 11.710938 C 2.648438 12.199219 3.441406 12.5 4.53125 12.5 C 4.609375 12.269531 4.609375 12.269531 4.6875 12.03125 C 4.578125 11.996094 4.46875 11.960938 4.355469 11.921875 C 3.070312 11.335938 2.3125 10.203125 1.75 8.945312 C 1.207031 7.46875 1.277344 5.988281 1.875 4.53125 C 2.71875 3.042969 3.746094 2.082031 5.390625 1.582031 C 7.007812 1.203125 8.453125 1.386719 9.890625 2.246094 C 10.746094 2.820312 11.402344 3.566406 12.03125 4.375 C 12.03125 4.476562 12.03125 4.582031 12.03125 4.6875 C 12.1875 4.636719 12.339844 4.585938 12.5 4.53125 C 12.433594 3.179688 12.019531 1.984375 11.300781 0.832031 C 11.09375 0.46875 11.09375 0.46875 11.09375 0 Z M 3.28125 3.90625 C 2.402344 5.0625 2.027344 6.199219 2.1875 7.65625 C 2.515625 9.191406 3.390625 10.207031 4.546875 11.226562 C 4.691406 11.316406 4.691406 11.316406 4.84375 11.40625 C 5.074219 11.328125 5.074219 11.328125 5.3125 11.25 C 5.28125 11.121094 5.28125 11.121094 5.25 10.992188 C 4.878906 9.402344 4.625 8.019531 5.429688 6.523438 C 6.277344 5.488281 7.167969 4.972656 8.5 4.835938 C 9.148438 4.847656 9.742188 5.03125 10.359375 5.21875 C 10.785156 5.3125 11.003906 5.300781 11.40625 5.15625 C 10.996094 3.972656 10.125 3.226562 9.023438 2.664062 C 6.921875 1.679688 4.832031 2.203125 3.28125 3.90625 Z M 6 6.867188 C 5.484375 7.617188 5.378906 8.324219 5.46875 9.21875 C 5.648438 9.753906 5.863281 10.265625 6.09375 10.78125 C 6.324219 10.703125 6.324219 10.703125 6.5625 10.625 C 6.726562 10.1875 6.726562 10.1875 6.84375 9.667969 C 7.152344 8.613281 7.492188 7.914062 8.417969 7.308594 C 8.957031 7.015625 9.472656 6.839844 10.070312 6.710938 C 10.253906 6.660156 10.4375 6.613281 10.625 6.5625 C 10.675781 6.40625 10.726562 6.253906 10.78125 6.09375 C 8.894531 5.242188 7.367188 5.164062 6 6.867188 Z M 8.054688 8.496094 C 7.628906 9.210938 7.34375 9.785156 7.34375 10.625 C 7.5 10.675781 7.652344 10.726562 7.8125 10.78125 C 7.890625 10.679688 7.96875 10.578125 8.046875 10.472656 C 8.621094 9.734375 9.183594 9.066406 9.914062 8.476562 C 10.226562 8.222656 10.503906 7.945312 10.78125 7.65625 C 10.730469 7.554688 10.679688 7.449219 10.625 7.34375 C 9.628906 7.34375 8.765625 7.804688 8.054688 8.496094 Z M 9.53125 9.6875 C 9.175781 10.078125 8.832031 10.464844 8.59375 10.9375 C 8.644531 11.09375 8.695312 11.246094 8.75 11.40625 C 9.753906 11.125 10.582031 10.324219 11.179688 9.492188 C 11.253906 9.351562 11.328125 9.207031 11.40625 9.0625 C 11.355469 8.90625 11.304688 8.753906 11.25 8.59375 C 10.585938 8.59375 10.007812 9.265625 9.53125 9.6875 Z M 14.84375 8.59375 C 14.742188 8.695312 14.636719 8.800781 14.53125 8.90625 C 14.605469 9.082031 14.679688 9.261719 14.757812 9.445312 C 15.199219 10.644531 15.269531 11.75 14.84375 12.96875 C 14.378906 13.832031 13.777344 14.425781 12.910156 14.882812 C 11.425781 15.304688 10.179688 15.058594 8.75 14.53125 C 8.613281 14.804688 8.613281 14.804688 8.59375 15.15625 C 9.382812 16.351562 10.457031 17.191406 11.777344 17.703125 C 13.136719 17.960938 14.246094 17.867188 15.46875 17.1875 C 16.691406 16.339844 17.527344 15.226562 17.8125 13.75 C 17.972656 12.441406 17.652344 11.238281 16.855469 10.183594 C 16.332031 9.59375 15.816406 9.03125 15.15625 8.59375 C 15.054688 8.59375 14.949219 8.59375 14.84375 8.59375 Z M 12.1875 9.21875 C 12.105469 9.328125 12.019531 9.4375 11.933594 9.550781 C 11.117188 10.589844 10.289062 11.40625 9.21875 12.1875 C 9.269531 12.34375 9.320312 12.496094 9.375 12.65625 C 10.320312 12.597656 10.992188 12.335938 11.71875 11.71875 C 12.335938 10.992188 12.597656 10.320312 12.65625 9.375 C 12.5 9.324219 12.347656 9.273438 12.1875 9.21875 Z M 13.4375 9.375 C 13.335938 9.691406 13.246094 10.011719 13.164062 10.332031 C 12.808594 11.523438 12.375 12.261719 11.269531 12.859375 C 10.828125 13.0625 10.402344 13.1875 9.929688 13.289062 C 9.65625 13.363281 9.65625 13.363281 9.375 13.4375 C 9.324219 13.59375 9.273438 13.746094 9.21875 13.90625 C 10.359375 14.421875 11.257812 14.738281 12.5 14.375 C 13.425781 13.996094 14.027344 13.222656 14.445312 12.335938 C 14.675781 11.128906 14.398438 10.3125 13.90625 9.21875 C 13.714844 9.207031 13.714844 9.207031 13.4375 9.375 Z M 13.4375 9.375 "/>
<path style=" stroke:none;fill-rule:nonzero;fill:rgb(61.568627%,78.039216%,98.431373%);fill-opacity:1;" d="M 11.09375 0 C 11.4375 -0.078125 11.4375 -0.078125 11.875 0 C 12.832031 0.996094 13.199219 2.597656 13.417969 3.914062 C 13.472656 4.25 13.472656 4.25 13.59375 4.53125 C 14.050781 4.8125 14.050781 4.8125 14.53125 5 C 14.949219 5.648438 14.949219 6.4375 14.84375 7.1875 C 14.640625 7.753906 14.335938 8.171875 13.898438 8.585938 C 13.109375 8.867188 12.160156 8.921875 11.371094 8.613281 C 10.980469 8.367188 10.828125 8.0625 10.625 7.65625 C 10.625 7.554688 10.625 7.449219 10.625 7.34375 C 9.046875 7.796875 9.046875 7.796875 7.945312 8.925781 C 7.6875 9.480469 7.480469 10.023438 7.34375 10.625 C 7.085938 10.625 6.828125 10.625 6.5625 10.625 C 6.722656 9.132812 7.148438 8.167969 8.3125 7.207031 C 9.007812 6.742188 9.808594 6.660156 10.625 6.5625 C 10.574219 6.40625 10.523438 6.253906 10.46875 6.09375 C 9.449219 5.617188 8.589844 5.453125 7.492188 5.792969 C 6.613281 6.152344 6.109375 6.808594 5.722656 7.65625 C 5.523438 8.609375 5.609375 9.308594 5.992188 10.1875 C 6.09375 10.46875 6.09375 10.46875 6.09375 10.9375 C 5.707031 11.09375 5.707031 11.09375 5.3125 11.25 C 4.773438 9.8125 4.480469 8.519531 5 7.03125 C 5.480469 6.125 6.195312 5.445312 7.089844 4.953125 C 8.289062 4.636719 9.175781 4.703125 10.375 5.046875 C 10.785156 5.175781 10.785156 5.175781 11.25 5.15625 C 10.988281 4.191406 10.28125 3.542969 9.445312 3.042969 C 8.210938 2.410156 7.074219 2.097656 5.6875 2.445312 C 4.265625 2.960938 3.339844 3.804688 2.640625 5.136719 C 2.101562 6.390625 2.246094 7.703125 2.738281 8.945312 C 3.300781 9.996094 4.117188 10.832031 5.15625 11.40625 C 5.054688 11.664062 4.949219 11.921875 4.84375 12.1875 C 3.207031 11.289062 2.210938 10.210938 1.5625 8.4375 C 1.1875 7.144531 1.371094 5.761719 1.875 4.53125 C 2.71875 3.042969 3.746094 2.082031 5.390625 1.582031 C 7.007812 1.203125 8.453125 1.386719 9.890625 2.246094 C 10.746094 2.820312 11.402344 3.566406 12.03125 4.375 C 12.03125 4.476562 12.03125 4.582031 12.03125 4.6875 C 12.1875 4.636719 12.339844 4.585938 12.5 4.53125 C 12.433594 3.179688 12.019531 1.984375 11.300781 0.832031 C 11.09375 0.46875 11.09375 0.46875 11.09375 0 Z M 11.09375 0 "/>
<path style=" stroke:none;fill-rule:nonzero;fill:rgb(89.411765%,59.215686%,61.176471%);fill-opacity:1;" d="M 8.007812 10.769531 C 8.710938 11.167969 9.128906 11.550781 9.375 12.34375 C 9.496094 13.179688 9.433594 13.886719 8.972656 14.609375 C 8.566406 15.039062 8.046875 15.253906 7.5 15.46875 C 7.5625 16.746094 7.890625 18.054688 8.699219 19.078125 C 8.90625 19.375 8.90625 19.375 8.90625 20 C 8.5625 20.078125 8.5625 20.078125 8.125 20 C 7.167969 19.003906 6.800781 17.402344 6.582031 16.085938 C 6.523438 15.75 6.523438 15.75 6.40625 15.46875 C 5.96875 15.191406 5.96875 15.191406 5.46875 15 C 5.03125 14.585938 4.722656 14.171875 4.53125 13.59375 C 4.140625 13.472656 3.769531 13.382812 3.367188 13.300781 C 2.117188 13.019531 1.070312 12.589844 0 11.875 C -0.03125 11.464844 -0.03125 11.464844 0 11.09375 C 0.640625 11.1875 1.121094 11.402344 1.6875 11.710938 C 2.648438 12.199219 3.441406 12.5 4.53125 12.5 C 4.578125 12.375 4.578125 12.375 4.628906 12.25 C 4.941406 11.535156 5.222656 11.0625 5.941406 10.722656 C 6.660156 10.496094 7.304688 10.480469 8.007812 10.769531 Z M 8.007812 10.769531 "/>
<path style=" stroke:none;fill-rule:nonzero;fill:rgb(86.27451%,90.196078%,92.156863%);fill-opacity:1;" d="M 15.15625 7.8125 C 16.792969 8.710938 17.789062 9.789062 18.4375 11.5625 C 18.8125 12.855469 18.628906 14.238281 18.125 15.46875 C 17.28125 16.957031 16.253906 17.917969 14.609375 18.417969 C 12.992188 18.796875 11.546875 18.613281 10.109375 17.753906 C 9.140625 17.101562 8.488281 16.246094 7.8125 15.3125 C 8.027344 15.078125 8.027344 15.078125 8.28125 14.84375 C 8.382812 14.84375 8.488281 14.84375 8.59375 14.84375 C 8.789062 15.085938 8.789062 15.085938 9.015625 15.410156 C 9.914062 16.636719 10.851562 17.289062 12.34375 17.65625 C 13.632812 17.847656 14.742188 17.519531 15.816406 16.796875 C 16.917969 15.90625 17.53125 14.832031 17.695312 13.425781 C 17.746094 11.984375 17.28125 10.847656 16.335938 9.765625 C 15.878906 9.273438 15.433594 8.917969 14.84375 8.59375 C 14.945312 8.335938 15.050781 8.078125 15.15625 7.8125 Z M 15.15625 7.8125 "/>
<path style=" stroke:none;fill-rule:nonzero;fill:rgb(86.27451%,90.196078%,92.156863%);fill-opacity:1;" d="M 10.195312 2.453125 C 11.015625 3.070312 11.59375 3.863281 12.1875 4.6875 C 11.972656 4.921875 11.972656 4.921875 11.71875 5.15625 C 11.617188 5.15625 11.511719 5.15625 11.40625 5.15625 C 11.210938 4.914062 11.210938 4.914062 10.984375 4.589844 C 10.085938 3.363281 9.148438 2.710938 7.65625 2.34375 C 6.367188 2.152344 5.257812 2.480469 4.183594 3.203125 C 3.160156 4.03125 2.449219 5.113281 2.304688 6.4375 C 2.253906 8.171875 2.839844 9.355469 4.011719 10.609375 C 4.375 10.9375 4.730469 11.171875 5.15625 11.40625 C 5.054688 11.664062 4.949219 11.921875 4.84375 12.1875 C 3.207031 11.289062 2.210938 10.210938 1.5625 8.4375 C 1.1875 7.144531 1.371094 5.761719 1.875 4.53125 C 2.71875 3.042969 3.746094 2.082031 5.390625 1.582031 C 7.140625 1.171875 8.699219 1.4375 10.195312 2.453125 Z M 10.195312 2.453125 "/>
<path style=" stroke:none;fill-rule:nonzero;fill:rgb(86.27451%,90.196078%,92.156863%);fill-opacity:1;" d="M 11.25 5.3125 C 11.148438 5.570312 11.042969 5.828125 10.9375 6.09375 C 10.507812 6.019531 10.117188 5.921875 9.707031 5.773438 C 8.8125 5.503906 8.03125 5.570312 7.175781 5.921875 C 6.472656 6.324219 6.054688 6.933594 5.722656 7.65625 C 5.523438 8.609375 5.609375 9.308594 5.992188 10.1875 C 6.09375 10.46875 6.09375 10.46875 6.09375 10.9375 C 5.835938 11.039062 5.578125 11.144531 5.3125 11.25 C 4.773438 9.8125 4.480469 8.519531 5 7.03125 C 5.480469 6.121094 6.203125 5.421875 7.117188 4.953125 C 8.53125 4.554688 9.890625 4.785156 11.25 5.3125 Z M 11.25 5.3125 "/>
<path style=" stroke:none;fill-rule:nonzero;fill:rgb(86.27451%,90.196078%,92.156863%);fill-opacity:1;" d="M 14.6875 8.90625 C 15.265625 10.289062 15.503906 11.519531 15 12.96875 C 14.519531 13.875 13.800781 14.5625 12.898438 15.046875 C 11.5 15.425781 10.226562 15.304688 8.90625 14.6875 C 8.957031 14.429688 9.007812 14.171875 9.0625 13.90625 C 9.492188 13.980469 9.882812 14.078125 10.292969 14.226562 C 11.1875 14.496094 11.96875 14.429688 12.824219 14.078125 C 13.527344 13.675781 13.945312 13.066406 14.277344 12.34375 C 14.476562 11.390625 14.390625 10.691406 14.007812 9.8125 C 13.90625 9.53125 13.90625 9.53125 13.90625 9.0625 C 14.21875 8.90625 14.21875 8.90625 14.6875 8.90625 Z M 14.6875 8.90625 "/>
<path style=" stroke:none;fill-rule:nonzero;fill:rgb(86.666667%,90.588235%,92.156863%);fill-opacity:1;" d="M 12.65625 9.375 C 12.914062 9.375 13.171875 9.375 13.4375 9.375 C 13.277344 10.867188 12.851562 11.832031 11.6875 12.792969 C 10.992188 13.257812 10.191406 13.339844 9.375 13.4375 C 9.375 13.179688 9.375 12.921875 9.375 12.65625 C 9.488281 12.617188 9.605469 12.582031 9.722656 12.542969 C 11.109375 12.109375 11.109375 12.109375 12.054688 11.074219 C 12.3125 10.519531 12.519531 9.976562 12.65625 9.375 Z M 12.65625 9.375 "/>
<path style=" stroke:none;fill-rule:nonzero;fill:rgb(86.27451%,90.196078%,92.156863%);fill-opacity:1;" d="M 10.625 6.5625 C 10.625 6.820312 10.625 7.078125 10.625 7.34375 C 10.511719 7.382812 10.394531 7.417969 10.277344 7.457031 C 8.890625 7.890625 8.890625 7.890625 7.945312 8.925781 C 7.6875 9.480469 7.480469 10.023438 7.34375 10.625 C 7.085938 10.625 6.828125 10.625 6.5625 10.625 C 6.710938 9.246094 7.046875 8.359375 8.074219 7.417969 C 8.835938 6.816406 9.648438 6.5625 10.625 6.5625 Z M 10.625 6.5625 "/>
<path style=" stroke:none;fill-rule:nonzero;fill:rgb(87.058824%,90.196078%,91.764706%);fill-opacity:1;" d="M 6.5625 15.3125 C 6.820312 15.3125 7.078125 15.3125 7.34375 15.3125 C 7.378906 15.476562 7.414062 15.640625 7.453125 15.808594 C 7.710938 16.929688 7.945312 17.949219 8.585938 18.921875 C 8.78125 19.277344 8.84375 19.601562 8.90625 20 C 8.5625 20.078125 8.5625 20.078125 8.125 20 C 6.988281 18.816406 6.632812 16.886719 6.5625 15.3125 Z M 6.5625 15.3125 "/>
<path style=" stroke:none;fill-rule:nonzero;fill:rgb(86.666667%,90.196078%,92.156863%);fill-opacity:1;" d="M 0 11.09375 C 0.628906 11.1875 1.085938 11.394531 1.640625 11.699219 C 2.625 12.207031 3.601562 12.457031 4.6875 12.65625 C 4.6875 12.914062 4.6875 13.171875 4.6875 13.4375 C 3.023438 13.394531 1.328125 12.898438 0 11.875 C -0.0585938 11.445312 -0.0585938 11.445312 0 11.09375 Z M 0 11.09375 "/>
<path style=" stroke:none;fill-rule:nonzero;fill:rgb(86.27451%,90.196078%,92.54902%);fill-opacity:1;" d="M 11.09375 0 C 11.4375 -0.078125 11.4375 -0.078125 11.875 0 C 13.011719 1.183594 13.367188 3.113281 13.4375 4.6875 C 13.179688 4.6875 12.921875 4.6875 12.65625 4.6875 C 12.621094 4.527344 12.585938 4.367188 12.550781 4.199219 C 12.273438 2.957031 11.953125 1.898438 11.277344 0.800781 C 11.09375 0.46875 11.09375 0.46875 11.09375 0 Z M 11.09375 0 "/>
<path style=" stroke:none;fill-rule:nonzero;fill:rgb(86.27451%,90.196078%,92.156863%);fill-opacity:1;" d="M 15.46875 6.5625 C 17.074219 6.753906 18.738281 7.03125 20 8.125 C 20.058594 8.554688 20.058594 8.554688 20 8.90625 C 19.371094 8.8125 18.914062 8.605469 18.359375 8.300781 C 17.375 7.792969 16.398438 7.542969 15.3125 7.34375 C 15.363281 7.085938 15.414062 6.828125 15.46875 6.5625 Z M 15.46875 6.5625 "/>
<path style=" stroke:none;fill-rule:nonzero;fill:rgb(88.627451%,50.980392%,53.72549%);fill-opacity:1;" d="M 8.4375 11.09375 C 9.003906 11.472656 9.132812 11.707031 9.375 12.34375 C 9.5 13.167969 9.445312 13.902344 8.976562 14.609375 C 8.429688 15.175781 7.746094 15.4375 6.96875 15.5 C 6.285156 15.460938 5.996094 15.363281 5.460938 14.914062 C 5.359375 14.785156 5.257812 14.660156 5.15625 14.53125 C 5.3125 14.582031 5.464844 14.632812 5.625 14.6875 C 6.554688 14.769531 7.339844 14.773438 8.125 14.21875 C 8.703125 13.601562 8.640625 12.929688 8.625 12.128906 C 8.597656 11.765625 8.539062 11.445312 8.4375 11.09375 Z M 8.4375 11.09375 "/>
<path style=" stroke:none;fill-rule:nonzero;fill:rgb(86.666667%,90.196078%,92.156863%);fill-opacity:1;" d="M 10.625 7.8125 C 10.78125 7.914062 10.933594 8.019531 11.09375 8.125 C 11.039062 8.550781 10.972656 8.71875 10.648438 9.007812 C 10.46875 9.128906 10.46875 9.128906 10.28125 9.257812 C 9.570312 9.785156 9.082031 10.359375 8.59375 11.09375 C 8.386719 11.042969 8.179688 10.992188 7.96875 10.9375 C 7.96875 10.195312 8.433594 9.765625 8.90625 9.21875 C 9.445312 8.695312 10 8.230469 10.625 7.8125 Z M 10.625 7.8125 "/>
<path style=" stroke:none;fill-rule:nonzero;fill:rgb(85.882353%,89.803922%,91.764706%);fill-opacity:1;" d="M 11.40625 8.90625 C 11.613281 8.957031 11.820312 9.007812 12.03125 9.0625 C 12.03125 9.859375 11.457031 10.367188 10.9375 10.9375 C 10.433594 11.378906 9.914062 11.789062 9.375 12.1875 C 9.21875 12.085938 9.066406 11.980469 8.90625 11.875 C 8.960938 11.449219 9.027344 11.28125 9.351562 10.992188 C 9.472656 10.910156 9.59375 10.828125 9.71875 10.742188 C 10.429688 10.214844 10.917969 9.640625 11.40625 8.90625 Z M 11.40625 8.90625 "/>
<path style=" stroke:none;fill-rule:nonzero;fill:rgb(49.411765%,33.72549%,33.72549%);fill-opacity:1;" d="M 6.71875 12.03125 C 6.875 12.03125 7.027344 12.03125 7.1875 12.03125 C 7.238281 12.238281 7.289062 12.445312 7.34375 12.65625 C 7.550781 12.707031 7.757812 12.757812 7.96875 12.8125 C 7.96875 12.96875 7.96875 13.121094 7.96875 13.28125 C 7.761719 13.28125 7.554688 13.28125 7.34375 13.28125 C 7.292969 13.539062 7.242188 13.796875 7.1875 14.0625 C 7.03125 14.0625 6.878906 14.0625 6.71875 14.0625 C 6.71875 13.804688 6.71875 13.546875 6.71875 13.28125 C 6.460938 13.28125 6.203125 13.28125 5.9375 13.28125 C 5.988281 13.074219 6.039062 12.867188 6.09375 12.65625 C 6.300781 12.65625 6.507812 12.65625 6.71875 12.65625 C 6.71875 12.449219 6.71875 12.242188 6.71875 12.03125 Z M 6.71875 12.03125 "/>
<path style=" stroke:none;fill-rule:nonzero;fill:rgb(40%,46.27451%,51.764706%);fill-opacity:1;" d="M 12.03125 6.71875 C 12.703125 6.71875 13.371094 6.71875 14.0625 6.71875 C 14.011719 6.925781 13.960938 7.132812 13.90625 7.34375 C 13.339844 7.34375 12.773438 7.34375 12.1875 7.34375 C 12.136719 7.136719 12.085938 6.929688 12.03125 6.71875 Z M 12.03125 6.71875 "/>
</g>
</svg>
