<svg width="10" height="18" viewBox="0 0 10 18" fill="none" xmlns="http://www.w3.org/2000/svg">
<path d="M5 1.38462C4.43168 1.38462 3.88664 1.60343 3.48477 1.99293C3.08291 2.38243 2.85714 2.91071 2.85714 3.46154V10.3673L2.61929 10.5736C2.0801 11.041 1.70004 11.656 1.52939 12.3372C1.35874 13.0185 1.40554 13.734 1.66361 14.3889C1.92169 15.0439 2.37885 15.6074 2.97462 16.005C3.57039 16.4026 4.27667 16.6155 5 16.6155C5.72333 16.6155 6.42961 16.4026 7.02538 16.005C7.62115 15.6074 8.07832 15.0439 8.33639 14.3889C8.59446 13.734 8.64126 13.0185 8.47061 12.3372C8.29996 11.656 7.9199 11.041 7.38071 10.5736L7.14286 10.3673V3.46154C7.14286 2.91071 6.91709 2.38243 6.51523 1.99293C6.11336 1.60343 5.56832 1.38462 5 1.38462ZM1.42857 3.46154C1.42857 2.54348 1.80485 1.66303 2.47462 1.01386C3.14439 0.364697 4.0528 0 5 0C5.9472 0 6.85561 0.364697 7.52538 1.01386C8.19515 1.66303 8.57143 2.54348 8.57143 3.46154V9.76224C9.26048 10.4439 9.72656 11.3075 9.91125 12.2448C10.0959 13.1821 9.99098 14.1515 9.60957 15.0312C9.22816 15.911 8.58726 16.662 7.76723 17.1901C6.94721 17.7183 5.98456 18 5 18C4.01544 18 3.05279 17.7183 2.23277 17.1901C1.41274 16.662 0.771839 15.911 0.390428 15.0312C0.00901615 14.1515 -0.0959281 13.1821 0.088754 12.2448C0.273436 11.3075 0.739524 10.4439 1.42857 9.76224V3.46154ZM4.28571 6.23077C4.28571 6.04716 4.36097 5.87107 4.49492 5.74124C4.62888 5.61141 4.81056 5.53847 5 5.53847C5.18944 5.53847 5.37112 5.61141 5.50508 5.74124C5.63903 5.87107 5.71429 6.04716 5.71429 6.23077V11.1946C6.19107 11.3579 6.59292 11.6794 6.84883 12.1021C7.10473 12.5248 7.1982 13.0216 7.11272 13.5047C7.02724 13.9878 6.76831 14.426 6.38169 14.7419C5.99508 15.0578 5.50568 15.2311 5 15.2311C4.49432 15.2311 4.00492 15.0578 3.61831 14.7419C3.23169 14.426 2.97276 13.9878 2.88728 13.5047C2.8018 13.0216 2.89527 12.5248 3.15117 12.1021C3.40708 11.6794 3.80893 11.3579 4.28571 11.1946V6.23077Z" fill="#FF756D"/>
</svg>
