<svg width="17" height="15" viewBox="0 0 17 15" fill="none" xmlns="http://www.w3.org/2000/svg">
<path fill-rule="evenodd" clip-rule="evenodd" d="M6.36458 0.00208673C6.52667 0.0137644 6.68172 0.0738204 6.81015 0.174677C6.93859 0.275533 7.03467 0.412672 7.08626 0.568789L10.846 11.9951L13.2479 7.12808C13.3162 6.98954 13.4212 6.873 13.5512 6.79155C13.6812 6.7101 13.831 6.66695 13.9839 6.66694H16.1774C16.3956 6.66694 16.6048 6.75475 16.7591 6.91104C16.9133 7.06733 17 7.2793 17 7.50033C17 7.72136 16.9133 7.93333 16.7591 8.08962C16.6048 8.24591 16.3956 8.33371 16.1774 8.33371H14.4917L11.4295 14.5397C11.3567 14.687 11.2425 14.8091 11.1012 14.8907C10.9599 14.9723 10.7979 15.0096 10.6357 14.9979C10.4735 14.9863 10.3184 14.9262 10.1899 14.8252C10.0614 14.7243 9.96528 14.587 9.91374 14.4308L6.1529 3.00561L3.75097 7.87257C3.68278 8.01095 3.57793 8.12737 3.44815 8.20881C3.31837 8.29026 3.16879 8.3335 3.01613 8.33371H0.822581C0.604419 8.33371 0.395192 8.24591 0.240928 8.08962C0.0866644 7.93333 0 7.72136 0 7.50033C0 7.2793 0.0866644 7.06733 0.240928 6.91104C0.395192 6.75475 0.604419 6.66694 0.822581 6.66694H2.50723L5.57161 0.461004C5.64432 0.313514 5.75858 0.191186 5.89993 0.109497C6.04127 0.0278083 6.20226 -0.00957153 6.36458 0.00208673Z" fill="#653FAA"/>
</svg>
