<svg width="18" height="18" viewBox="0 0 18 18" fill="none" xmlns="http://www.w3.org/2000/svg">
<path d="M10.4363 9.31131C9.64306 8.51806 9.64306 7.23194 10.4363 6.43869C11.2296 5.64544 12.5157 5.64544 13.3089 6.43869C14.1022 7.23194 14.1022 8.51806 13.3089 9.31131C12.5157 10.1046 11.2296 10.1046 10.4363 9.31131Z" fill="#ED7D3D"/>
<path d="M1 6H4V18H1V6Z" fill="#000069"/>
<path d="M1.28174 3.84424C0.573854 3.13635 0.573854 1.98865 1.28174 1.28076C1.98962 0.572877 3.13733 0.572877 3.84521 1.28076C4.5531 1.98865 4.5531 3.13635 3.84521 3.84424C3.13733 4.55212 1.98962 4.55212 1.28174 3.84424Z" fill="#ED7D3D"/>
<path d="M7.43631 14.3113C6.64306 13.5181 6.64306 12.2319 7.43631 11.4387V11.4387C8.22956 10.6454 9.51568 10.6454 10.3089 11.4387V11.4387C11.1022 12.2319 11.1022 13.5181 10.3089 14.3113V14.3113C9.51568 15.1046 8.22956 15.1046 7.43631 14.3113V14.3113Z" fill="#ED7D3D"/>
<path d="M13.4363 14.3113C12.6431 13.5181 12.6431 12.2319 13.4363 11.4387C14.2296 10.6454 15.5157 10.6454 16.3089 11.4387C17.1022 12.2319 17.1022 13.5181 16.3089 14.3113C15.5157 15.1046 14.2296 15.1046 13.4363 14.3113Z" fill="#ED7D3D"/>
</svg>
