<svg width="185" height="44" viewBox="0 0 185 44" fill="none" xmlns="http://www.w3.org/2000/svg">
<path d="M53.0432 25.2609C53.0267 28.545 52.9855 31.8291 53.0185 35.1132C53.0267 35.8814 52.8099 36.0679 52.0774 36.0268C50.9169 35.9637 49.7481 35.9856 48.5821 36.0213C48.0937 36.0378 47.9949 35.8732 47.9949 35.415C48.0087 26.1883 48.0086 16.9588 47.9922 7.73208C47.9922 7.18336 48.1952 7.11751 48.6616 7.12025C52.3353 7.13672 56.0145 7.04069 59.6854 7.15318C63.3673 7.26567 66.2371 8.71428 67.6501 12.4236C68.3469 14.2564 68.3744 16.0479 68.1494 17.941C67.9409 19.6969 67.3538 21.2086 66.1493 22.5146C64.687 24.1004 62.857 24.9399 60.7554 25.0359C58.1929 25.1539 55.6194 25.0853 53.0514 25.0963C53.0047 25.1045 52.9581 25.1128 52.9115 25.1182C52.9554 25.1649 52.9993 25.2115 53.0432 25.2582V25.2609ZM52.9965 16.2647C52.9965 17.5487 53.0185 18.8327 52.9855 20.1139C52.9718 20.6023 53.0761 20.7834 53.6111 20.7751C55.6413 20.7422 57.6716 20.8135 59.6991 20.7285C60.2972 20.7038 60.9228 20.616 61.5236 20.1825C62.8597 19.2195 63.3975 17.9163 63.3673 16.4046C63.3426 15.1563 63.3015 13.8558 62.1684 12.8955C61.1807 12.0587 60.0229 11.8749 58.8431 11.82C57.1448 11.7432 55.4383 11.8338 53.74 11.7816C53.0706 11.7624 52.9636 12.0066 52.9855 12.5937C53.0294 13.8146 52.9993 15.041 52.9993 16.2647H52.9965Z" fill="white"/>
<path d="M157.776 17.5212C157.779 17.491 157.787 17.4608 157.787 17.4334C157.806 16.7201 157.546 15.7351 157.91 15.3647C158.388 14.8791 159.376 15.2193 160.141 15.2111C162.147 15.1892 162.149 15.2029 162.147 17.2331C162.144 23.2059 162.199 29.1788 162.111 35.1488C162.064 38.3396 160.827 40.9488 157.765 42.4248C156.572 42.9982 155.288 43.0367 154.028 43.1491C152.27 43.3083 150.47 43.2918 148.824 42.6087C147.309 41.9804 146.031 40.9598 145.257 39.4261C144.105 37.1462 144.132 37.0858 146.604 37.0858C146.782 37.0858 146.966 37.1077 147.142 37.083C148.173 36.9404 148.947 37.1077 149.444 38.2326C149.864 39.1846 150.934 39.4919 151.88 39.566C153.504 39.6922 155.109 39.6538 156.487 38.4411C157.422 37.6181 157.499 36.5453 157.691 35.5055C157.842 34.6934 157.76 33.8401 157.782 33.0033C157.916 32.6823 157.801 32.5589 157.469 32.6082C157.063 32.6247 156.761 32.8387 156.506 33.1268C155.532 34.2242 154.229 34.5589 152.843 34.7592C150.42 35.1131 148.437 34.1447 146.804 32.5451C145.413 31.1788 144.604 29.3708 144.223 27.4585C144.017 26.4214 144.094 25.324 144.066 24.254C144.006 21.8835 144.67 19.7161 145.998 17.7599C146.632 16.8243 147.466 16.1 148.467 15.5705C148.536 15.5294 148.607 15.4882 148.676 15.447C150.673 14.624 152.687 14.4594 154.758 15.1974C155.982 15.6336 156.78 16.5116 157.452 17.5514C157.504 17.6721 157.444 17.8943 157.664 17.8696C157.889 17.8449 157.803 17.6666 157.771 17.5322L157.776 17.5212ZM156.122 29.7357C156.366 29.7576 156.588 29.7494 156.591 29.4174C157.463 28.1307 157.971 26.7479 157.839 25.1594C157.76 24.1799 158.004 23.1072 157.686 22.2292C157.033 20.4377 156.07 18.9259 153.77 18.6927C151.833 18.4979 149.674 19.417 149.079 21.2443C148.302 23.6202 148.228 25.9633 149.175 28.3804C150.248 31.1185 154.034 31.9114 156.122 29.7357Z" fill="white"/>
<path d="M170.564 29.7387C171.146 30.8746 171.785 31.9556 173.085 32.4165C173.085 32.5317 173.129 32.6003 173.258 32.5674C174.504 32.9103 175.727 32.8527 176.946 32.422C177.807 32.1174 178.507 31.651 178.828 30.7511C179.012 30.2326 179.357 30.0542 179.909 30.0762C180.894 30.1174 181.881 30.1146 182.866 30.0762C183.549 30.0515 183.552 30.282 183.368 30.8554C182.685 33.0118 181.319 34.573 179.324 35.5716C177.088 36.691 174.655 36.9379 172.314 36.2795C170.056 35.643 168.18 34.2135 166.981 32.0818C165.979 30.3012 165.425 28.3889 165.362 26.3422C165.305 24.4902 165.395 22.663 166.075 20.9043C166.857 18.8823 168.1 17.0688 169.856 15.9631C171.554 14.8959 173.587 14.3801 175.777 14.7834C177.064 15.0221 178.32 15.2169 179.423 15.922C181.925 17.5242 183.141 19.9523 183.656 22.7837C183.851 23.851 183.997 24.9265 184.041 26.0184C184.062 26.5918 183.881 26.7016 183.344 26.6988C179.16 26.6769 174.976 26.6988 170.792 26.6741C169.96 26.6686 169.705 26.8058 169.969 27.7249C170.139 28.3175 170.243 28.9513 170.441 29.5522C170.377 29.6839 170.468 29.714 170.564 29.7387ZM169.864 23.6315H177.385C179.492 23.6315 179.53 23.6205 179.003 21.6012C178.614 20.1087 177.763 18.907 176.199 18.4872C174.509 18.0345 172.877 18.1333 171.585 19.5325C170.537 20.6711 170.152 22.0978 169.867 23.6315H169.864Z" fill="white"/>
<path d="M136.029 33.6798C135.239 34.4919 134.536 35.3698 133.483 35.9241C132.929 36.2149 132.306 36.4206 131.793 36.4865C128.961 36.8569 126.333 36.4014 124.662 33.7511C123.856 32.4726 123.565 30.9911 123.787 29.4793C123.916 28.6069 124.086 27.7317 124.621 26.9635C125.746 25.3447 127.414 24.7878 129.222 24.3049C130.948 23.844 132.77 23.9647 134.451 23.2843C135.604 22.8179 136.443 21.8247 136.317 20.8699C136.111 19.3225 134.986 18.2553 133.554 18.2498C133.047 18.2498 132.539 18.2498 132.032 18.2498C130.495 18.2498 129.277 19.3171 129.14 20.8562C129.096 21.3583 128.95 21.5119 128.454 21.4955C127.439 21.4598 126.421 21.468 125.408 21.4955C124.967 21.5065 124.813 21.4214 124.808 20.9193C124.786 18.6366 126.55 16.3595 128.627 15.4678C131.321 14.31 134.106 14.4225 136.822 15.3196C138.907 16.0083 140.024 17.649 140.43 19.7862C140.827 21.8768 140.655 23.9894 140.668 26.0937C140.685 28.6755 140.597 31.2572 140.649 33.8362C140.66 34.3355 140.778 34.9364 141.146 35.389C141.472 35.7896 141.448 36.0201 140.86 36.0173C139.725 36.0118 138.589 36.0036 137.456 36.0201C136.981 36.0256 136.759 35.7869 136.66 35.3644C136.531 34.8019 136.397 34.2395 136.268 33.6798C136.295 33.5728 136.237 33.5207 136.141 33.5289C136.062 33.5344 135.974 33.5646 136.032 33.6825L136.029 33.6798ZM136.432 25.6136C136.427 25.567 136.424 25.5176 136.419 25.4709C136.358 25.5011 136.298 25.5286 136.237 25.5587C135.779 25.7508 135.313 25.9319 134.86 26.1376C133.433 26.7851 131.845 26.8537 130.394 27.4024C129.447 27.7591 128.553 28.2475 128.429 29.3861C128.281 30.7359 128.314 32.0693 129.785 32.7936C130.833 33.3067 131.93 33.2518 133.008 32.961C134.701 32.5 135.969 31.3834 136.306 29.7208C136.572 28.4148 136.591 26.9909 136.432 25.6164V25.6136Z" fill="white"/>
<path d="M100.421 33.4952C99.4337 34.4994 98.4515 35.5118 97.0084 35.8602C96.948 35.8602 96.8877 35.863 96.8273 35.8657C96.7093 35.8657 96.5886 35.8657 96.4706 35.8657C96.018 35.7368 96.1826 36.2827 95.9247 36.365C94.7257 36.4638 93.5268 36.6367 92.3196 36.5406C90.5911 36.4062 89.1013 35.6901 87.7954 34.5707C87.8393 34.4473 87.8146 34.3951 87.6829 34.472C87.1836 34.2497 86.794 33.9205 86.5937 33.3937C86.3797 32.8203 85.7981 32.5295 85.5155 32.0055C84.8817 30.823 84.3357 29.5993 84.097 28.2769C83.7102 26.1479 83.8419 24.0216 84.2671 21.909C84.3467 21.5167 84.7308 21.2204 84.6156 20.7704C84.8433 20.732 85.0847 20.6991 84.7966 20.4055C85.8749 18.4055 87.1671 16.6139 89.3016 15.5905C90.9176 14.8168 92.5528 14.5727 94.3636 14.8004C96.1579 15.0281 97.6778 15.5933 99.0551 16.7675C100.644 18.1229 101.475 19.8897 101.999 21.8048C102.369 23.1519 102.539 24.5566 102.583 25.9723C102.603 26.5567 102.441 26.7103 101.854 26.7076C97.6723 26.6802 93.4911 26.6939 89.3099 26.6939C88.3331 26.6939 88.3139 26.8118 88.4648 27.7694C88.6651 29.0287 89.2714 30.0904 89.8668 31.1714C89.8284 31.3031 89.8997 31.3415 90.0122 31.347C90.0643 31.5445 90.0973 31.7668 90.3908 31.6022C90.5747 32.2195 91.1426 32.2606 91.6254 32.4252C91.6282 32.5405 91.6721 32.6091 91.801 32.5761C93.011 32.8368 94.1852 32.9054 95.4061 32.4609C96.3472 32.118 96.9974 31.5363 97.5077 30.7462C97.8013 30.2907 98.2128 30.1097 98.7122 30.1014C99.6642 30.085 100.619 30.0959 101.574 30.0959C101.807 30.0959 102.128 30.0575 102.021 30.4306C101.848 31.0287 101.845 31.7339 101.162 32.0713C100.701 32.299 101.157 32.8724 100.773 33.1303C100.704 33.2977 100.043 32.9081 100.421 33.5007V33.4952ZM93.0878 23.632C94.3718 23.632 95.6585 23.5991 96.9425 23.6457C97.7135 23.6732 98.1086 23.6046 97.7684 22.6635C97.6559 22.3508 97.6257 21.92 97.5324 21.5716C97.1401 20.101 96.3005 18.935 94.7806 18.507C93.0933 18.0323 91.4608 18.1256 90.1467 19.5111C89.2879 20.4165 88.8654 21.5414 88.4813 22.7047C88.2892 23.2863 88.3825 23.6293 88.9587 23.632C90.3332 23.6402 91.7078 23.6348 93.0823 23.6348L93.0878 23.632Z" fill="white"/>
<path d="M15.5542 1.75512C16.7449 1.11037 17.8835 0.380572 19.2855 0.210469C20.0811 0.114443 20.8713 0.21047 21.6587 0.117188C21.7026 0.325701 21.8562 0.306496 22.0099 0.284547C22.1882 0.298265 22.3665 0.314728 22.5449 0.328446C22.8137 0.525985 23.11 0.638472 23.4448 0.649446C23.5024 0.66042 23.5627 0.674136 23.6204 0.68511C23.6889 0.866187 23.8316 0.855214 23.9825 0.827778C26.3914 2.04319 27.8894 4.0762 29.0088 6.44392C29.1432 6.72926 29.2667 7.02282 29.3929 7.31364C29.3243 7.57703 29.4916 7.67305 29.6947 7.74713C29.9498 9.01467 30.6687 10.1231 30.9375 11.3934C31.0829 12.0793 31.3463 12.7432 31.5576 13.4154C31.5219 13.5334 31.5795 13.591 31.6838 13.6239C31.9005 15.089 32.4026 16.4773 32.8059 17.893C32.7785 18.0384 32.7456 18.1865 32.9321 18.2606C33.1955 19.5995 33.5878 20.8999 34.0789 22.1702C34.0213 22.5324 34.1859 22.8205 34.3945 23.0921C34.463 23.3335 34.5316 23.5749 34.6002 23.8164C34.5783 23.9316 34.6332 23.9892 34.7429 24.0029C34.7676 24.0578 34.7895 24.1127 34.8142 24.1703C34.8389 24.5517 34.8087 24.9605 35.2559 25.1525C35.544 26.2417 36.1778 27.1581 36.7293 28.1156C36.7485 28.4723 37.0036 28.6506 37.2615 28.8262C37.4838 29.2021 37.7032 29.5779 38.1504 29.7343C38.1669 29.9373 38.2328 30.1047 38.4605 30.1513L38.4852 30.0992C38.4852 30.0992 38.4522 30.1486 38.455 30.1486C38.4714 30.3187 38.4879 30.4888 38.5044 30.6589C38.3288 30.6397 38.1559 30.6232 37.9803 30.604C37.9282 30.5053 37.9035 30.3489 37.824 30.316C36.3891 29.6959 35.3822 28.6177 34.5289 27.3474C32.9952 25.0647 32.0569 22.4967 30.9842 20C30.1199 17.989 29.36 15.9395 28.1006 14.1233C27.3489 13.0395 26.3255 12.2219 25.4503 11.2644C25.0909 9.50578 24.2541 7.96662 23.2088 6.53995C22.073 4.98707 19.4583 4.46853 17.8945 6.61402C16.8546 8.04069 16.1358 9.59632 15.5871 11.2507C15.4966 11.6979 15.1399 11.9476 14.8271 12.2137C14.2565 12.6966 13.7873 13.2673 13.3373 13.8571C11.3318 16.491 10.3605 19.6269 9.09575 22.6174C8.22877 24.6696 7.2109 26.6286 5.92964 28.4476C5.23551 29.4298 4.06125 29.7453 3.18055 30.4669C2.97753 30.4586 2.77724 30.4504 2.57422 30.4422C2.63732 30.3269 2.69768 30.209 2.76078 30.0937C4.82671 28.0141 5.92964 25.4324 6.82954 22.6888C7.77059 19.8217 8.57172 16.93 9.34267 14.0163C9.95724 11.6952 10.7419 9.40701 11.768 7.20939C12.3497 5.9638 12.8737 4.70997 13.7544 3.63448C14.2565 3.02265 14.9972 2.63855 15.3649 1.90601C15.428 1.85937 15.4911 1.81273 15.5542 1.76609V1.75512Z" fill="white"/>
<path d="M120.507 20.748C119.31 20.7534 118.117 20.7562 116.921 20.7726C116.597 20.7781 116.424 20.7644 116.355 20.3309C116.254 19.7026 115.911 19.1759 115.291 18.8247C113.744 17.9522 112.128 17.9714 110.605 18.6656C109.37 19.228 108.948 21.1595 110.594 22.1774C111.686 22.8523 112.956 23.0279 114.199 23.2858C116.284 23.7165 118.476 23.9991 120.048 25.6233C121.431 27.0555 121.681 28.8663 121.5 30.8087C121.335 32.5756 120.518 33.9062 119.159 34.9488C117.955 35.8734 116.534 36.4057 115.063 36.5099C112.487 36.691 109.903 36.6197 107.623 35.1024C106.528 34.3754 105.834 33.3191 105.285 32.1695C105 31.5742 104.906 30.8801 104.679 30.271C104.358 29.4177 104.805 29.5439 105.296 29.5467C105.804 29.5494 106.314 29.5768 106.819 29.5412C108.056 29.4561 109 29.4726 109.595 31.0227C110.287 32.8198 112.484 33.2121 114.344 32.8856C114.86 32.7951 115.373 32.6469 115.875 32.3616C116.912 31.7772 117.225 30.9404 117.094 29.8704C116.973 28.8937 116.375 28.3697 115.42 28.0788C114.276 27.7277 113.104 27.2859 111.974 27.1241C110.734 26.9457 109.593 26.6385 108.495 26.1254C106.372 25.1295 105.354 23.3599 105.266 21.0607C105.175 18.7012 106.13 16.863 108.248 15.7436C109.34 15.1675 110.47 14.7312 111.785 14.8026C112.578 14.8465 113.395 14.7751 114.191 14.852C116.452 15.0714 118.528 15.697 119.793 17.8123C120.301 18.6601 120.753 19.5353 120.668 20.5724C120.614 20.63 120.559 20.6876 120.501 20.7425L120.507 20.748Z" fill="white"/>
<path d="M32.2438 33.849C31.9914 33.8792 31.8926 33.7448 31.8762 33.5143C31.5305 32.5906 30.9863 32.2285 30.2437 32.4278C29.396 31.7227 28.6058 30.9628 27.9336 30.0876C28.2299 29.8022 28.6031 30.0382 29.1243 29.9641C28.3068 29.5334 27.7663 28.9819 26.9871 28.8529C26.6825 28.4606 26.3039 28.1204 26.1174 27.6403C26.1229 27.3522 26.1969 27.0065 25.7003 27.1245L25.7525 27.0778C25.7333 27.0916 25.7168 27.1053 25.6976 27.119C25.7964 26.8199 25.6674 26.6965 25.3739 26.6965C24.9678 26.2822 24.5617 25.8679 24.1557 25.4536C24.0926 25.0037 23.9582 24.6882 23.4478 25.0723C23.1488 24.9406 22.8525 24.8061 22.5534 24.6744C22.1419 24.1394 20.2131 23.6291 19.6919 23.9419C19.5903 24.0023 19.5629 24.1916 19.5026 24.3233C19.3818 24.3864 19.1788 24.2849 19.1349 24.5071C18.8276 24.6223 18.5176 24.7348 18.2103 24.85C17.5738 24.5565 17.2501 24.9269 16.9894 25.4289C16.8193 25.4948 16.8522 25.6567 16.8193 25.7883C16.5011 25.9475 16.32 26.252 16.0923 26.5044C15.9798 26.5099 15.9112 26.5511 15.9414 26.68C15.667 26.99 15.3954 27.3001 15.121 27.6101C14.6629 27.5662 14.6491 27.857 14.6821 28.1862C14.3144 28.702 13.9495 29.2206 13.5819 29.7364C13.4666 29.7364 13.4063 29.7858 13.4282 29.9065C13.3569 29.9641 13.2883 30.0217 13.217 30.0793C12.6408 29.8461 12.9481 30.3235 12.8823 30.4991L12.35 30.9957C11.7464 31.1356 11.3541 31.4813 11.269 32.1206C11.1675 32.384 10.8931 32.4608 10.7066 32.6309C10.5831 32.6062 10.5365 32.6665 10.5365 32.7818C10.4953 32.7982 10.4542 32.8037 10.4103 32.801C9.86704 32.7955 9.36222 32.8531 9.27442 33.5445C9.03847 33.6542 8.79978 33.764 8.56383 33.8737C7.42798 33.978 6.40188 34.3621 5.50472 35.0754L5.32639 35.0864C4.92857 34.6364 4.42375 35.3443 4.00946 34.9574C3.75705 34.7242 3.49092 34.6529 3.32356 35.0727C3.244 35.273 3.06018 35.2757 2.8791 35.2867C1.94079 35.347 1.00522 35.4074 0.0669139 35.4705C-0.029112 34.0932 -0.0126522 32.7159 0.0586813 31.3386C0.497657 31.2234 1.06832 31.6322 1.37835 31.0067C1.49633 30.9929 1.6143 30.9792 1.73228 30.9655C1.86123 31.1713 1.98469 31.1631 2.10541 30.9573C2.39074 30.9353 2.67607 30.9161 2.95867 30.8942C3.05469 31.1027 3.14523 31.3524 3.44154 31.2591C3.66651 31.1905 3.71041 30.982 3.67474 30.7652V30.768C3.84759 30.7982 3.993 30.7735 4.0561 30.5787C4.20426 30.5348 4.34967 30.4936 4.49782 30.4525L4.49508 30.4936L4.53623 30.5128C4.84077 30.9683 5.15629 31.292 5.54313 30.5841C5.67483 30.3455 5.85316 30.2302 6.12752 30.3153C6.29762 30.3674 6.43755 30.4333 6.57198 30.211C7.09875 29.355 7.90263 29.1849 8.80801 29.4181C9.21132 29.5224 9.41984 29.2864 9.20858 29.0615C8.72571 28.5457 9.12078 28.0518 9.08786 27.5552C9.14273 27.4976 9.19761 27.4427 9.25248 27.3851C9.99051 27.4976 10.649 27.4043 10.7724 26.5127C10.863 25.8597 11.2443 25.4042 11.5708 24.883C11.7793 24.5482 12.3226 24.2931 12.0647 23.7389L12.0756 23.7252C12.1909 23.7279 12.361 23.7828 12.4131 23.7252C13.3103 22.7594 14.383 21.9693 15.1951 20.9212C15.2445 20.88 15.2939 20.8389 15.3433 20.8005C16.0072 21.0392 16.4736 20.7895 16.8083 20.2106C16.8577 20.1777 16.9071 20.1448 16.9565 20.1091C17.1239 20.4493 17.2501 20.4136 17.3461 20.0679C17.4668 20.0076 17.5848 19.9472 17.7055 19.8841C17.7329 20.0268 17.7659 20.1722 17.9497 20.1832C18.1856 20.1969 18.2213 20.0268 18.2405 19.8457C18.3201 19.6756 18.46 19.7058 18.5999 19.7332C18.9813 20.2298 19.3462 20.1804 19.7001 19.703H20.7536C21.2886 20.2463 21.8264 20.2243 22.3696 19.714C22.5946 19.6153 22.7345 19.7991 22.9074 19.8759C23.6234 20.5426 24.5672 20.5453 25.4452 20.7401C25.6647 20.7045 25.7964 20.8718 25.9582 20.9678C25.9994 21.3245 26.2628 21.2861 26.5097 21.2806L26.5042 21.2751C26.6304 21.8568 26.9569 22.197 27.5879 22.175L27.5797 22.1695L27.791 22.3396L27.7745 22.3259C27.8349 22.3973 27.8952 22.4659 27.9556 22.5372L28.1174 22.7018C28.1806 22.7676 28.2437 22.8335 28.3068 22.8966C28.54 23.0173 28.7128 23.1984 28.8308 23.4343C28.8116 23.8294 28.8994 24.1394 29.3795 24.1532C29.6484 24.3233 29.9255 24.4824 29.909 24.8638C29.8843 25.2616 29.9749 25.5743 30.4577 25.5853L30.6278 25.7499C30.6169 26.0243 30.6086 26.2987 31.001 26.3014C31.0558 26.3563 31.1107 26.4111 31.1683 26.4633C31.1574 26.6937 31.2534 26.8309 31.4948 26.8474C31.5634 26.9626 31.6347 27.0751 31.7033 27.1903C31.8981 28.5374 32.392 28.9874 33.6787 28.9929C33.9695 29.5965 34.4167 29.9504 35.1246 29.8845L35.1191 29.8763C35.1603 30.3921 35.5526 30.2193 35.8434 30.2412L35.8379 30.2357C36.0657 31.0506 36.5622 30.8805 37.0972 30.5841C37.2728 30.6116 37.4484 30.6418 37.6213 30.6692C37.613 31.3222 38.1069 31.1411 38.4553 31.1466C39.9122 31.174 39.8957 31.1713 40.2661 32.4992C40.3813 32.9135 40.1426 33.2482 40.1234 33.6323C40.0823 34.5294 39.6296 34.8504 38.7242 34.6556C37.9258 34.4855 37.1219 34.502 36.3318 34.6172C35.7666 34.6995 35.281 34.9629 34.9572 34.1673C34.9024 34.0329 33.9778 34.3895 33.5004 34.0054C33.4784 33.9862 33.4428 33.9752 33.4318 33.9505C33.1026 33.1988 32.6636 33.5911 32.2411 33.8326L32.2438 33.849ZM30.0242 31.1192C29.9749 31.0972 29.9145 31.0478 29.8761 31.0643C29.8404 31.078 29.8295 31.1548 29.8075 31.207C29.8569 31.2289 29.9172 31.2783 29.9529 31.2618C29.9886 31.2481 29.9996 31.1713 30.0215 31.1192H30.0242Z" fill="white"/>
<path d="M75.623 15.3829C75.6394 16.4584 75.6532 17.5311 75.6696 18.6066C75.5242 18.7027 75.4666 18.8536 75.6614 18.8947C75.8562 18.9359 75.815 18.7191 75.8315 18.5874C76.564 16.8535 77.8151 15.5667 79.5408 14.9192C80.2761 14.6449 81.2309 14.7025 82.0814 15.0016C82.3503 15.0948 82.3914 15.2101 82.3914 15.435C82.3914 16.5983 82.3777 17.7644 82.3969 18.9276C82.4051 19.4434 82.1061 19.4873 81.7083 19.512C80.9428 19.5587 80.1664 19.3694 79.4119 19.6108C77.0963 20.3571 76.1443 21.9511 75.9385 24.4697C75.8287 25.836 75.8534 27.1914 75.815 28.5494C75.7547 30.7882 75.7821 33.027 75.8095 35.2658C75.8178 35.8227 75.708 36.0587 75.0852 36.0257C74.0125 35.9709 72.9342 35.9928 71.8615 36.0175C71.4225 36.0285 71.2305 35.9434 71.2305 35.4386C71.2469 28.8704 71.2442 22.3023 71.2305 15.7341C71.2305 15.2814 71.3951 15.1826 71.8039 15.1936C73.0275 15.2238 74.2512 15.221 75.4748 15.232C75.5215 15.2814 75.5681 15.3308 75.6147 15.3829H75.623Z" fill="white"/>
<path d="M32.2461 33.8484C32.6714 33.6042 33.1103 33.2146 33.4368 33.9664C33.4478 33.9911 33.4835 34.002 33.5054 34.0212C33.9828 34.4026 34.9074 34.0487 34.9623 34.1831C35.286 34.9788 35.7716 34.7154 36.3368 34.6331C37.127 34.5206 37.9308 34.5014 38.7292 34.6715C39.6346 34.8635 40.0873 34.5453 40.1285 33.6481C40.1449 33.264 40.3863 32.9293 40.2711 32.515C39.9007 31.1871 39.9144 31.1899 38.4603 31.1624C38.1119 31.1569 37.6208 31.338 37.6263 30.685C37.747 30.6576 37.8677 30.6329 37.9884 30.6055C38.164 30.6247 38.3369 30.6411 38.5125 30.6603C39.3767 31.0115 40.3095 31.0115 41.2067 31.1953C41.2067 32.5315 41.2067 33.8703 41.2039 35.2065C41.2039 35.4946 41.2808 35.8183 40.8006 35.821C37.7936 35.843 34.8964 35.3848 32.2488 33.8539L32.2461 33.8484Z" fill="white"/>
<path d="M0.0640813 35.4701C1.00239 35.4098 1.93796 35.3467 2.87627 35.2863C3.05734 35.2753 3.24117 35.2698 3.32073 35.0723C3.48809 34.6525 3.75422 34.7239 4.00663 34.9571C4.42366 35.3439 4.92848 34.6333 5.32355 35.086C5.09309 35.3878 4.65137 35.1546 4.41542 35.4399C4.23983 35.4619 4.06424 35.4838 3.88865 35.5085C3.69386 35.4866 3.47163 35.3659 3.34542 35.6347C2.45924 35.6649 1.58678 35.9365 0.692365 35.8323C0.442698 35.8021 0.0339018 36.0024 0.0640813 35.4701Z" fill="white"/>
<path d="M19.5039 24.3246C19.5643 24.1956 19.5917 24.0063 19.6932 23.9432C20.2145 23.6304 22.1432 24.1407 22.5548 24.6757C21.611 24.4617 20.6699 24.2066 19.685 24.3849C19.6246 24.3657 19.5643 24.3438 19.5039 24.3246Z" fill="white"/>
<path d="M41.2006 31.1898C40.3035 31.006 39.3707 31.006 38.5064 30.6548C38.49 30.4847 38.4735 30.3146 38.457 30.1445C39.3158 30.4354 40.169 30.7509 41.0744 30.8935C41.132 30.9018 41.1595 31.0883 41.2034 31.1898H41.2006Z" fill="white"/>
<path d="M5.50781 35.0767C6.40497 34.3606 7.43108 33.9793 8.56693 33.875C8.38311 33.9957 8.20203 34.1192 8.01821 34.2399C7.89749 34.2125 7.83164 34.2646 7.81518 34.3853C7.75756 34.3853 7.70543 34.4045 7.65879 34.4319C7.52984 34.3853 7.48869 34.4649 7.46674 34.5691C7.20884 34.5554 6.96466 34.5911 6.76438 34.7776C6.62171 34.7584 6.47082 34.7173 6.39125 34.8984C6.33089 34.8984 6.27602 34.9203 6.22664 34.956C5.98794 34.9971 5.74651 35.0383 5.50781 35.0794V35.0767Z" fill="white"/>
<path d="M26.9805 28.8523C27.7597 28.9813 28.2974 29.5328 29.1177 29.9635C28.5964 30.0376 28.2233 29.8016 27.927 30.087C27.6142 29.6727 27.1396 29.3819 26.9805 28.8496V28.8523Z" fill="white"/>
<path d="M30.2422 32.4281C30.983 32.2287 31.5271 32.5909 31.8746 33.5146C31.2052 33.3417 30.7635 32.8259 30.2422 32.4281Z" fill="white"/>
<path d="M1.73631 30.9686C1.61834 30.9823 1.50036 30.996 1.38239 31.007C1.30831 30.9768 1.23423 30.9494 1.16016 30.9192C1.29734 30.8588 1.43452 30.8012 1.5717 30.7409L1.65126 30.7573L1.73082 30.7464C1.88447 30.782 2.03262 30.8012 2.1067 30.6119C2.26308 30.5516 2.41947 30.494 2.5786 30.4336C2.78162 30.4418 2.98191 30.4501 3.18493 30.4583C3.35504 30.4967 3.5224 30.5378 3.6925 30.5763C3.68976 30.6394 3.68427 30.7052 3.68152 30.7683C3.42911 30.7381 3.17945 30.7244 2.9627 30.8973C2.67737 30.9192 2.39203 30.9384 2.10944 30.9604C1.98598 30.9604 1.85978 30.9659 1.73631 30.9659V30.9686Z" fill="white"/>
<path d="M5.51224 35.0746C5.75094 35.0335 5.99238 34.9923 6.23107 34.9512C5.73997 35.5273 5.13912 35.6947 4.42578 35.4395C4.66173 35.1542 5.10345 35.3874 5.33391 35.0856L5.51224 35.0746Z" fill="white"/>
<path d="M11.2695 32.1171C11.3546 31.4778 11.7469 31.1349 12.3505 30.9922C12.1831 31.5519 11.7744 31.8784 11.2695 32.1171Z" fill="white"/>
<path d="M1.15603 30.9199C1.23011 30.9501 1.30419 30.9775 1.37826 31.0077C1.06824 31.6333 0.497569 31.2217 0.0585938 31.3397C0.214979 30.651 0.826801 31.1586 1.15603 30.9199Z" fill="white"/>
<path d="M16.9922 25.4287C17.2528 24.9293 17.5766 24.5562 18.2131 24.8498C17.8674 25.061 17.5217 25.2723 17.176 25.4863C17.1156 25.4671 17.0553 25.4479 16.9922 25.4287Z" fill="white"/>
<path d="M9.28125 33.5427C9.36905 32.8513 9.87387 32.7937 10.4171 32.7991C10.2772 32.9199 10.1345 33.0406 9.99458 33.1613C9.87112 33.1339 9.81625 33.1942 9.80253 33.3095C9.62969 33.3863 9.4541 33.4658 9.28125 33.5427Z" fill="white"/>
<path d="M23.4414 25.0747C23.9545 24.6906 24.0889 25.0061 24.1493 25.4561C23.8502 25.4451 23.5896 25.3628 23.4414 25.0747Z" fill="white"/>
<path d="M35.262 25.1502C34.8148 24.9581 34.8477 24.5493 34.8203 24.168C35.2483 24.371 35.2126 24.7798 35.262 25.1502Z" fill="white"/>
<path d="M34.3976 23.0918C34.1863 22.8202 34.0245 22.5321 34.0821 22.1699C34.4497 22.3867 34.6335 22.6693 34.3976 23.0918Z" fill="white"/>
<path d="M23.4507 0.64522C23.116 0.634245 22.8169 0.521758 22.5508 0.324219C22.9623 0.115706 23.2614 0.230936 23.4507 0.64522Z" fill="white"/>
<path d="M37.2666 28.8258C37.0087 28.6475 36.7536 28.4692 36.7344 28.1152C37.1843 28.1482 37.2858 28.4417 37.2666 28.8258Z" fill="white"/>
<path d="M2.57737 30.4332C2.42098 30.4935 2.2646 30.5539 2.10547 30.6115C2.11644 30.178 2.39355 30.0738 2.76119 30.0847C2.69809 30.2 2.63772 30.3179 2.57462 30.4332H2.57737Z" fill="white"/>
<path d="M95.9297 36.3608C96.1876 36.2785 96.023 35.7324 96.4758 35.8614C96.5087 36.2621 96.3084 36.4075 95.9297 36.3608Z" fill="white"/>
<path d="M100.421 33.4945C100.043 32.9033 100.7 33.2947 100.771 33.125C100.782 33.3686 100.67 33.4945 100.421 33.4945Z" fill="white"/>
<path d="M19.4966 24.3242L19.6777 24.3846C19.5735 24.7743 19.3869 24.7962 19.1289 24.5081C19.1701 24.2858 19.3731 24.3873 19.4966 24.3242Z" fill="white"/>
<path d="M3.35156 35.6351C3.48054 35.3662 3.70007 35.4869 3.8949 35.5089C3.79063 35.8876 3.60951 35.9232 3.35156 35.6351Z" fill="white"/>
<path d="M25.6992 27.1214C26.1959 27.0034 26.1218 27.3491 26.1163 27.6373C25.9764 27.4644 25.8392 27.2943 25.6992 27.1214Z" fill="white"/>
<path d="M14.679 28.1886C14.646 27.8593 14.6598 27.5657 15.118 27.6123C15.0275 27.8456 14.8848 28.0404 14.679 28.1886Z" fill="white"/>
<path d="M84.8067 20.3965C85.0968 20.6893 84.8532 20.7222 84.626 20.7605C84.3852 20.4923 84.7109 20.5005 84.8067 20.3965Z" fill="white"/>
<path d="M12.8835 30.4961C12.9491 30.3209 12.6426 29.8475 13.2174 30.0774C13.1736 30.2689 13.0641 30.414 12.8835 30.4961Z" fill="white"/>
<path d="M75.8253 18.5879C75.8088 18.7165 75.8499 18.9327 75.6556 18.8944C75.4613 18.8534 75.5187 18.7028 75.6638 18.607C75.7185 18.6153 75.7733 18.6098 75.8253 18.5879Z" fill="white"/>
<path d="M32.9401 18.2574C32.754 18.1862 32.7869 18.0357 32.8142 17.8906C33.066 17.9399 33.233 18.0193 32.9401 18.2574Z" fill="white"/>
<path d="M22.0183 0.282416C21.865 0.307048 21.7118 0.326206 21.668 0.115467C21.928 -0.133589 21.9772 0.0662031 22.0183 0.282416Z" fill="white"/>
<path d="M38.4655 30.1484C38.2384 30.1019 38.1727 29.935 38.1562 29.7324C38.4245 29.7488 38.5422 29.8747 38.4655 30.1484Z" fill="white"/>
<path d="M23.9824 0.82335C23.8318 0.850718 23.6895 0.861665 23.6211 0.681031C23.8701 0.40187 23.9358 0.587978 23.9824 0.82335Z" fill="white"/>
<path d="M16.99 25.4297C17.0502 25.4488 17.1104 25.468 17.1734 25.4872C17.1515 25.7006 17.0228 25.7855 16.8203 25.7882C16.8532 25.6568 16.8203 25.4954 16.99 25.4297Z" fill="white"/>
<path d="M29.6995 7.74297C29.4969 7.66908 29.33 7.57329 29.3984 7.31055C29.6639 7.34065 29.735 7.50213 29.6995 7.74297Z" fill="white"/>
<path d="M6.38672 34.8982C6.46609 34.7175 6.61388 34.7586 6.75893 34.7777C6.70693 35.035 6.62209 35.2019 6.38672 34.8982Z" fill="white"/>
<path d="M157.469 32.6021C157.803 32.5529 157.915 32.6788 157.781 32.9963C157.551 32.9634 157.515 32.7773 157.469 32.6021Z" fill="white"/>
<path d="M157.775 17.5203C157.807 17.6572 157.892 17.8323 157.668 17.857C157.449 17.8816 157.509 17.6599 157.457 17.5395C157.564 17.5313 157.671 17.5258 157.777 17.5176L157.775 17.5203Z" fill="white"/>
<path d="M90.4011 31.5954C90.1083 31.7623 90.0727 31.5406 90.0234 31.3436C90.215 31.3299 90.3573 31.3928 90.4011 31.5954Z" fill="white"/>
<path d="M120.508 20.7459C120.563 20.6884 120.617 20.6309 120.675 20.5762C120.781 20.6364 120.877 20.7294 120.771 20.8389C120.664 20.9484 120.571 20.8553 120.508 20.7486V20.7459Z" fill="white"/>
<path d="M25.3789 26.6992C25.6718 26.6992 25.8004 26.8224 25.7019 27.1207C25.4829 27.066 25.3816 26.9209 25.3789 26.6992Z" fill="white"/>
<path d="M136.031 33.6775C135.971 33.5599 136.061 33.5298 136.141 33.5243C136.237 33.5161 136.291 33.5681 136.267 33.6748C136.187 33.6748 136.111 33.6748 136.031 33.6775Z" fill="white"/>
<path d="M96.8281 35.8648C96.8883 35.8648 96.9485 35.8621 97.0088 35.8594C96.9787 35.9305 96.9513 36.0044 96.9212 36.0756C96.8911 36.0044 96.8582 35.936 96.8281 35.8648Z" fill="white"/>
<path d="M90.0064 31.3384C89.8947 31.3303 89.8238 31.2948 89.862 31.1641C89.911 31.2213 89.9573 31.2812 90.0064 31.3384Z" fill="white"/>
<path d="M1.72834 30.7455L1.64933 30.7564L1.57031 30.74C1.62481 30.6665 1.6793 30.6719 1.73107 30.7455H1.72834Z" fill="white"/>
<path d="M15.9446 26.6783C15.9146 26.5502 15.9827 26.5066 16.0944 26.5039C16.0454 26.5611 15.9936 26.6211 15.9446 26.6783Z" fill="white"/>
<path d="M91.8072 32.5678C91.6764 32.6005 91.6355 32.5324 91.6328 32.418L91.8072 32.5678Z" fill="white"/>
<path d="M173.262 32.5678C173.133 32.6005 173.09 32.5324 173.09 32.418C173.147 32.467 173.204 32.5161 173.262 32.5678Z" fill="white"/>
<path d="M10.543 32.7801C10.543 32.6684 10.5893 32.6058 10.7119 32.6303C10.6547 32.6793 10.6002 32.7284 10.543 32.7801Z" fill="white"/>
<path d="M148.681 15.4407C148.612 15.4818 148.541 15.5228 148.473 15.5639C148.514 15.4763 148.541 15.3613 148.681 15.4407Z" fill="white"/>
<path d="M9.80469 33.3107C9.81838 33.1957 9.87317 33.1354 9.99645 33.1628L9.80469 33.3107Z" fill="white"/>
<path d="M75.6194 15.3829C75.5731 15.3339 75.5268 15.2848 75.4805 15.2331C75.6058 15.2086 75.6603 15.2521 75.6194 15.3829Z" fill="white"/>
<path d="M31.6872 13.6221C31.5832 13.5892 31.5258 13.529 31.5613 13.4141C31.6024 13.4825 31.6462 13.5536 31.6872 13.6221Z" fill="white"/>
<path d="M7.8125 34.3835C7.82892 34.2658 7.89461 34.2138 8.01503 34.2384C7.94661 34.2877 7.88092 34.3342 7.8125 34.3835Z" fill="white"/>
<path d="M7.46875 34.5656C7.49067 34.4615 7.53176 34.3848 7.66051 34.4286C7.5975 34.4752 7.53176 34.519 7.46875 34.5656Z" fill="white"/>
<path d="M87.6836 34.4712C87.8165 34.3952 87.8382 34.4468 87.7948 34.5688C87.7378 34.5579 87.6999 34.5254 87.6836 34.4712Z" fill="white"/>
<path d="M34.7488 24.0027C34.6392 23.989 34.5844 23.9315 34.6063 23.8164C34.6529 23.8794 34.7022 23.9397 34.7488 24.0027Z" fill="white"/>
<path d="M53.0449 25.2643C53.0013 25.218 52.9577 25.1716 52.9141 25.1253C52.9604 25.1171 53.0067 25.109 53.053 25.1035C53.053 25.158 53.053 25.2098 53.0449 25.2643Z" fill="white"/>
<path d="M13.4254 29.9072C13.4063 29.7873 13.4662 29.7383 13.578 29.7383C13.5262 29.7955 13.4744 29.85 13.4254 29.9072Z" fill="white"/>
<path d="M170.57 29.7371C170.474 29.7097 170.384 29.6823 170.447 29.5508C170.488 29.6138 170.529 29.6741 170.57 29.7371Z" fill="white"/>
<path d="M156.125 29.7355C156.152 29.44 156.352 29.3989 156.593 29.4181C156.593 29.7492 156.369 29.7574 156.125 29.7355Z" fill="white"/>
<path d="M136.433 25.6151C136.367 25.5959 136.301 25.5795 136.238 25.5603C136.299 25.5302 136.359 25.5028 136.419 25.4727C136.425 25.5192 136.427 25.5685 136.433 25.6151Z" fill="white"/>
<path d="M3.69507 30.5785C3.52496 30.5401 3.3576 30.499 3.1875 30.4606C4.06819 29.739 5.24246 29.4235 5.93659 28.4413C7.22059 26.6195 8.23572 24.6606 9.1027 22.6111C10.3675 19.6206 11.3387 16.4847 13.3443 13.8508C13.7942 13.2582 14.2634 12.6903 14.8341 12.2074C15.1468 11.9413 15.5035 11.6916 15.594 11.2444C16.8561 10.7067 18.0797 10.0839 19.49 9.95218C21.63 9.7519 23.5999 10.2101 25.4545 11.2581C26.3325 12.2184 27.3559 13.036 28.1049 14.117C29.3642 15.9332 30.1241 17.9827 30.9884 19.9938C32.0611 22.4932 32.9994 25.0612 34.5331 27.3411C35.3864 28.6114 36.3933 29.6896 37.8282 30.3097C37.9077 30.3426 37.9352 30.499 37.9846 30.5978C37.8638 30.6252 37.7431 30.6499 37.6224 30.6773C37.4468 30.6499 37.2712 30.6197 37.0984 30.5923C36.7225 30.3179 36.2863 30.2603 35.8391 30.2438L35.8445 30.2493C35.647 30.0408 35.4083 29.9146 35.1202 29.8844L35.1257 29.8926C34.7279 29.4592 34.2368 29.1738 33.6798 28.9982C33.1366 28.2712 32.319 27.8432 31.7045 27.1957C31.6359 27.0805 31.5645 26.968 31.4959 26.8527C31.4822 26.6442 31.3313 26.5537 31.1695 26.4686C31.1146 26.4138 31.0597 26.3589 31.0021 26.3068C30.9911 26.0461 30.8677 25.8623 30.629 25.7553C30.5713 25.7004 30.5137 25.6456 30.4589 25.5907C30.4397 25.2258 30.1735 25.0475 29.9101 24.8691C29.9266 24.4878 29.6468 24.3286 29.3806 24.1585C29.3697 23.7881 29.1145 23.6016 28.8319 23.4397C28.7167 23.2038 28.5438 23.0227 28.3079 22.902C28.2448 22.8361 28.1817 22.7703 28.1186 22.7044C28.0637 22.6495 28.0116 22.5947 27.9567 22.5398C27.8963 22.4685 27.836 22.3999 27.7756 22.3285L27.7921 22.3423C27.7208 22.2847 27.6494 22.227 27.5808 22.1722L27.5891 22.1777C27.2735 21.821 27.0376 21.3738 26.5053 21.2778L26.5108 21.2832C26.4532 21.0939 26.3051 20.9897 26.1404 20.9046C25.7097 19.0692 24.711 17.5437 23.6246 16.0375C22.4284 14.3831 18.7437 14.4517 17.5914 16.0238C16.472 17.5519 15.5968 19.1734 14.8889 20.9101C13.9095 21.8045 12.6941 22.4657 12.0768 23.7223L12.0658 23.736C10.9656 24.8252 10.1315 26.1202 9.25359 27.3823C9.19872 27.4399 9.14385 27.4947 9.08898 27.5524C7.87631 29.0092 6.082 29.5497 4.5154 30.4441H4.50169C4.35353 30.488 4.20812 30.5292 4.05997 30.5731C3.9365 30.5731 3.81304 30.5731 3.69233 30.5703L3.69507 30.5785Z" fill="white"/>
<path d="M4.51172 30.4503C6.08106 29.5559 7.87262 29.0154 9.08529 27.5586C9.11822 28.0552 8.72314 28.549 9.20601 29.0648C9.41727 29.2898 9.20601 29.5258 8.80545 29.4215C7.89732 29.1883 7.09619 29.3556 6.56942 30.2144C6.43498 30.4339 6.29506 30.3708 6.12495 30.3187C5.85334 30.2336 5.67226 30.3488 5.54057 30.5875C5.15372 31.2954 4.83821 30.9689 4.53641 30.5162L4.51446 30.4531L4.51172 30.4503Z" fill="white"/>
<path d="M9.24609 27.3884C10.124 26.1264 10.9581 24.8341 12.0583 23.7422C12.3162 24.2964 11.7729 24.5516 11.5644 24.8863C11.2379 25.4076 10.8566 25.863 10.766 26.516C10.6426 27.4076 9.98687 27.5009 9.24609 27.3884Z" fill="white"/>
<path d="M14.8903 20.918C14.9918 20.9235 15.0933 20.9262 15.1976 20.9317C14.3855 21.9797 13.31 22.7699 12.4156 23.7356C12.3635 23.7905 12.1934 23.7356 12.0781 23.7356C12.6954 22.4791 13.9108 21.8179 14.8903 20.9235V20.918Z" fill="white"/>
<path d="M31.7109 27.2012C32.3255 27.8514 33.1431 28.2767 33.6863 29.0037C32.3996 28.9982 31.9057 28.5455 31.7109 27.2012Z" fill="white"/>
<path d="M22.9062 19.8906C23.8171 19.9867 24.6923 20.1897 25.4441 20.7549C24.5661 20.5601 23.6223 20.5601 22.9062 19.8906Z" fill="white"/>
<path d="M20.7578 19.7168C21.2956 19.7223 21.836 19.725 22.3738 19.7305C21.8306 20.2408 21.2928 20.2628 20.7578 19.7168Z" fill="white"/>
<path d="M15.3438 20.8106C15.7882 20.5033 16.2766 20.3085 16.8088 20.2207C16.4741 20.7996 16.0077 21.0493 15.3438 20.8106Z" fill="white"/>
<path d="M33.6836 29.002C34.2433 29.1775 34.7316 29.4629 35.1295 29.8964C34.4216 29.9622 33.9744 29.6083 33.6836 29.002Z" fill="white"/>
<path d="M35.8438 30.248C36.291 30.2645 36.7272 30.3221 37.1031 30.5965C36.5681 30.8955 36.0715 31.0629 35.8438 30.248Z" fill="white"/>
<path d="M26.5039 21.2871C27.0362 21.3831 27.2721 21.8331 27.5876 22.187C26.9593 22.209 26.6329 21.8688 26.5039 21.2871Z" fill="white"/>
<path d="M18.6055 19.747C18.9731 19.736 19.338 19.7278 19.7057 19.7168C19.3517 20.1942 18.9868 20.2436 18.6055 19.747Z" fill="white"/>
<path d="M2.96484 30.896C3.18159 30.7204 3.43125 30.7369 3.68366 30.7671C3.71933 30.9866 3.67544 31.1923 3.45046 31.2609C3.15141 31.3542 3.06361 31.1045 2.96759 30.896H2.96484Z" fill="white"/>
<path d="M28.8423 23.4453C29.1248 23.6072 29.38 23.7937 29.391 24.1641C28.9108 24.1504 28.823 23.8404 28.8423 23.4453Z" fill="white"/>
<path d="M29.91 24.877C30.1734 25.0553 30.4423 25.2336 30.4587 25.5985C29.9731 25.5875 29.8853 25.2748 29.91 24.877Z" fill="white"/>
<path d="M35.125 29.8887C35.4131 29.9189 35.6518 30.0451 35.8493 30.2536C35.5585 30.2316 35.1662 30.4045 35.125 29.8887Z" fill="white"/>
<path d="M17.7109 19.8978C17.8893 19.8841 18.0677 19.8731 18.246 19.8594C18.2268 20.0377 18.1884 20.2079 17.9552 20.1969C17.7713 20.1859 17.7384 20.0432 17.7109 19.8978Z" fill="white"/>
<path d="M30.6323 25.7637C30.8711 25.8707 30.9946 26.0545 31.0055 26.3152C30.6131 26.3152 30.6214 26.0381 30.6323 25.7637Z" fill="white"/>
<path d="M25.957 20.9799C26.0174 20.958 26.0778 20.936 26.1381 20.9141C26.3028 20.9991 26.451 21.1034 26.5086 21.2928C26.2616 21.2982 25.9982 21.3367 25.957 20.9799Z" fill="white"/>
<path d="M30.0221 31.1184C30.0002 31.1677 29.9892 31.2443 29.9536 31.258C29.9181 31.2717 29.8579 31.2224 29.8086 31.2033C29.8305 31.154 29.8414 31.0746 29.877 31.061C29.9126 31.0473 29.9728 31.0965 30.0248 31.1184H30.0221Z" fill="white"/>
<path d="M16.957 20.1192C17.0857 20.1055 17.217 20.0918 17.3457 20.0781C17.2499 20.4202 17.124 20.4585 16.957 20.1192Z" fill="white"/>
<path d="M31.1766 26.4766C31.3354 26.5614 31.4886 26.6517 31.5023 26.8597C31.2615 26.8433 31.1657 26.7065 31.1766 26.4766Z" fill="white"/>
<path d="M3.68556 30.5789C3.80872 30.5789 3.93188 30.5789 4.0523 30.5817C3.99209 30.776 3.84703 30.8033 3.67188 30.7705C3.67461 30.7048 3.68009 30.6419 3.68282 30.5762L3.68556 30.5789Z" fill="white"/>
<path d="M1.73438 30.9664C1.85753 30.9664 1.98343 30.9609 2.10659 30.9609C1.98617 31.1635 1.86301 31.1717 1.73438 30.9664Z" fill="white"/>
<path d="M4.51473 30.4531L4.53603 30.5143L4.49609 30.4957L4.50142 30.4558L4.51473 30.4531Z" fill="white"/>
<path d="M27.582 22.1816C27.6532 22.2391 27.7216 22.2966 27.7928 22.3513C27.7216 22.2939 27.6532 22.2364 27.582 22.1816Z" fill="white"/>
</svg>
